<svg xmlns="http://www.w3.org/2000/svg" viewBox="0 0 480 270" fill="none">
  <defs>
    <linearGradient id="hero-c" x1="0" y1="0" x2="480" y2="100" gradientUnits="userSpaceOnUse">
      <stop offset="0%" stop-color="#0f766e"/>
      <stop offset="100%" stop-color="#0d9488"/>
    </linearGradient>
  </defs>

  <!-- Background -->
  <rect width="480" height="270" rx="8" fill="#f8fafc"/>
  <rect width="480" height="270" rx="8" fill="none" stroke="#e2e8f0" stroke-width="1"/>

  <!-- Top Bar Nav -->
  <rect width="480" height="28" rx="8 8 0 0" fill="#ffffff"/>
  <rect y="27" width="480" height="1" fill="#e2e8f0"/>
  <rect x="16" y="8" width="40" height="12" rx="2" fill="#0f766e"/>
  <rect x="300" y="10" width="28" height="8" rx="2" fill="#cbd5e1"/>
  <rect x="336" y="10" width="28" height="8" rx="2" fill="#cbd5e1"/>
  <rect x="372" y="10" width="28" height="8" rx="2" fill="#cbd5e1"/>
  <rect x="408" y="10" width="28" height="8" rx="2" fill="#cbd5e1"/>
  <rect x="444" y="10" width="28" height="8" rx="2" fill="#cbd5e1"/>

  <!-- Hero Section -->
  <rect y="28" width="480" height="66" fill="url(#hero-c)"/>
  <rect x="130" y="42" width="220" height="12" rx="3" fill="#ffffff" opacity="0.95"/>
  <rect x="145" y="60" width="190" height="7" rx="2" fill="#ffffff" opacity="0.55"/>
  <rect x="200" y="74" width="80" height="14" rx="4" fill="#ffffff" opacity="0.85"/>

  <!-- Events List Section -->
  <rect y="94" width="480" height="52" fill="#ffffff"/>
  <rect x="170" y="98" width="140" height="8" rx="2" fill="#1e293b" opacity="0.15"/>
  <!-- Event rows -->
  <rect x="30" y="112" width="200" height="12" rx="4" fill="#f1f5f9" stroke="#e2e8f0" stroke-width="0.5"/>
  <circle cx="42" cy="118" r="4" fill="#0f766e" opacity="0.25"/>
  <rect x="52" y="115" width="80" height="4" rx="1" fill="#94a3b8" opacity="0.5"/>
  <rect x="140" y="115" width="40" height="4" rx="1" fill="#0f766e" opacity="0.2"/>

  <rect x="250" y="112" width="200" height="12" rx="4" fill="#f1f5f9" stroke="#e2e8f0" stroke-width="0.5"/>
  <circle cx="262" cy="118" r="4" fill="#0f766e" opacity="0.25"/>
  <rect x="272" y="115" width="80" height="4" rx="1" fill="#94a3b8" opacity="0.5"/>
  <rect x="360" y="115" width="40" height="4" rx="1" fill="#0f766e" opacity="0.2"/>

  <rect x="30" y="130" width="200" height="12" rx="4" fill="#f1f5f9" stroke="#e2e8f0" stroke-width="0.5"/>
  <circle cx="42" cy="136" r="4" fill="#0f766e" opacity="0.25"/>
  <rect x="52" y="133" width="80" height="4" rx="1" fill="#94a3b8" opacity="0.5"/>
  <rect x="140" y="133" width="40" height="4" rx="1" fill="#0f766e" opacity="0.2"/>

  <rect x="250" y="130" width="200" height="12" rx="4" fill="#f1f5f9" stroke="#e2e8f0" stroke-width="0.5"/>
  <circle cx="262" cy="136" r="4" fill="#0f766e" opacity="0.25"/>
  <rect x="272" y="133" width="80" height="4" rx="1" fill="#94a3b8" opacity="0.5"/>
  <rect x="360" y="133" width="40" height="4" rx="1" fill="#0f766e" opacity="0.2"/>

  <!-- Features Section -->
  <rect y="146" width="480" height="46" fill="#f8fafc"/>
  <rect x="180" y="150" width="120" height="7" rx="2" fill="#1e293b" opacity="0.12"/>
  <rect x="24" y="162" width="102" height="24" rx="5" fill="#ffffff" stroke="#e2e8f0" stroke-width="0.5"/>
  <circle cx="75" cy="170" r="4" fill="#0f766e" opacity="0.2"/>
  <rect x="55" y="178" width="40" height="3" rx="1" fill="#94a3b8" opacity="0.4"/>

  <rect x="138" y="162" width="102" height="24" rx="5" fill="#ffffff" stroke="#e2e8f0" stroke-width="0.5"/>
  <circle cx="189" cy="170" r="4" fill="#0f766e" opacity="0.2"/>
  <rect x="169" y="178" width="40" height="3" rx="1" fill="#94a3b8" opacity="0.4"/>

  <rect x="252" y="162" width="102" height="24" rx="5" fill="#ffffff" stroke="#e2e8f0" stroke-width="0.5"/>
  <circle cx="303" cy="170" r="4" fill="#0f766e" opacity="0.2"/>
  <rect x="283" y="178" width="40" height="3" rx="1" fill="#94a3b8" opacity="0.4"/>

  <rect x="366" y="162" width="102" height="24" rx="5" fill="#ffffff" stroke="#e2e8f0" stroke-width="0.5"/>
  <circle cx="417" cy="170" r="4" fill="#0f766e" opacity="0.2"/>
  <rect x="397" y="178" width="40" height="3" rx="1" fill="#94a3b8" opacity="0.4"/>

  <!-- Gallery Section -->
  <rect y="192" width="480" height="32" fill="#ffffff"/>
  <rect x="190" y="194" width="100" height="6" rx="2" fill="#1e293b" opacity="0.12"/>
  <!-- Gallery grid -->
  <rect x="30" y="204" width="60" height="16" rx="3" fill="#e2e8f0"/>
  <rect x="100" y="204" width="60" height="16" rx="3" fill="#d1d5db"/>
  <rect x="170" y="204" width="60" height="16" rx="3" fill="#e2e8f0"/>
  <rect x="250" y="204" width="60" height="16" rx="3" fill="#d1d5db"/>
  <rect x="320" y="204" width="60" height="16" rx="3" fill="#e2e8f0"/>
  <rect x="390" y="204" width="60" height="16" rx="3" fill="#d1d5db"/>

  <!-- CTA Section -->
  <rect y="224" width="480" height="30" fill="#0f766e"/>
  <rect x="170" y="230" width="140" height="7" rx="2" fill="#ffffff" opacity="0.85"/>
  <rect x="210" y="242" width="60" height="8" rx="3" fill="#ffffff" opacity="0.7"/>

  <!-- Footer -->
  <rect y="254" width="480" height="16" rx="0 0 8 8" fill="#1e293b"/>
  <rect x="200" y="259" width="80" height="4" rx="1" fill="#94a3b8" opacity="0.25"/>
</svg>